<?xml version="1.0" standalone="no"?>
<!DOCTYPE svg PUBLIC "-//W3C//DTD SVG 1.1//EN" "http://www.w3.org/Graphics/SVG/1.1/DTD/svg11.dtd">
<svg width="100%" height="100%" viewBox="0 0 96 96" version="1.1" xmlns="http://www.w3.org/2000/svg" xmlns:xlink="http://www.w3.org/1999/xlink" xml:space="preserve" style="fill-rule:evenodd;clip-rule:evenodd;stroke-linejoin:round;stroke-miterlimit:1.41421;">
    <g id="path6455" transform="matrix(1,0,0,1,268,-635.291)">
        <path d="M-268,700.156L-268,666.426C-268,639.183 -264.112,635.291 -236.897,635.291L-203.103,635.291C-175.888,635.291 -172,639.183 -172,666.426L-172,700.156C-172,727.399 -175.888,731.291 -203.103,731.291L-236.897,731.291C-264.112,731.291 -268,727.399 -268,700.156Z" style="fill:url(#_Linear1);fill-rule:nonzero;"/>
    </g>
    <g id="path22" transform="matrix(0.0845472,0,0,-0.0845472,9.43457,99.7885)">
        <path d="M276.648,896.871L366.293,792.48C370.137,787.516 365.043,783.844 365.043,783.844C329.121,764.469 303.129,735.191 280.895,701.664C276.48,695.012 271.719,699.844 271.719,699.844L158.129,784.906C158.129,784.906 153.246,787.777 157.52,793.453C190.781,837.621 220.996,868.77 269.309,898.176C269.309,898.176 272.969,901.625 276.648,896.871" style="fill:rgb(213,44,36);fill-rule:nonzero;"/>
    </g>
    <g id="path24" transform="matrix(0.0845472,0,0,-0.0845472,9.43457,99.7885)">
        <path d="M117.633,726.809L251.879,661.914C258.258,659.441 255.066,653.633 255.066,653.633C236.52,609.496 225.219,572.234 216.5,527.086C215.039,519.527 209.91,521.949 209.91,521.949L58.906,587.516C58.906,587.516 54.379,589.211 56.27,595.027C62.973,615.684 97.129,698.145 110.84,725.094C110.84,725.094 113.242,729.18 117.633,726.809" style="fill:rgb(200,38,36);fill-rule:nonzero;"/>
    </g>
    <g id="path26" transform="matrix(0.0845472,0,0,-0.0845472,9.43457,99.7885)">
        <path d="M42.52,518.344C73.227,508.887 202.074,479.211 202.074,479.211C209.797,476.832 207.496,471.039 207.496,471.039C198.605,401.039 200.535,347.617 200.535,329.16C200.535,320.977 194.578,322.18 194.578,322.18C161.129,322.18 6.547,322.18 6.547,322.18C-1.625,322.18 0.168,329.543 0.168,329.543C1.703,352.859 8.426,419.211 34.352,514.336C34.352,514.336 35.641,520.465 42.519,518.344" style="fill:rgb(172,31,34);fill-rule:nonzero;"/>
    </g>
    <g id="path28" transform="matrix(0.0845472,0,0,-0.0845472,9.43457,99.7885)">
        <path d="M657.777,896.871L568.137,792.48C564.293,787.516 569.387,783.844 569.387,783.844C605.309,764.469 631.301,735.191 653.535,701.664C657.949,695.012 662.711,699.844 662.711,699.844L776.301,784.906C776.301,784.906 781.184,787.777 776.91,793.453C743.648,837.621 713.434,868.77 665.121,898.176C665.121,898.176 661.461,901.625 657.777,896.871" style="fill:rgb(213,44,36);fill-rule:nonzero;"/>
    </g>
    <g id="path30" transform="matrix(0.0845472,0,0,-0.0845472,9.43457,99.7885)">
        <path d="M467.219,807.52C482.305,807.52 510.242,806.078 523.43,803.891C530.316,802.75 532.02,807.301 532.02,807.301L588.445,925.215C588.445,925.215 592.223,929.652 584.32,932.543C542.203,947.953 519.801,955.043 467.219,955.043C415.258,955.043 392.227,947.953 350.105,932.543C342.207,929.652 345.98,925.215 345.98,925.215L402.406,807.301C402.406,807.301 404.109,802.75 411,803.891C424.184,806.078 452.125,807.52 467.219,807.52" style="fill:rgb(223,61,60);fill-rule:nonzero;"/>
    </g>
    <g id="path32" transform="matrix(0.0845472,0,0,-0.0845472,9.43457,99.7885)">
        <path d="M816.797,726.809L682.551,661.914C676.172,659.441 679.359,653.633 679.359,653.633C697.91,609.496 709.211,572.234 717.93,527.086C719.391,519.527 724.516,521.949 724.516,521.949L875.523,587.516C875.523,587.516 880.051,589.211 878.16,595.027C871.453,615.684 837.301,698.145 823.59,725.094C823.59,725.094 821.188,729.18 816.797,726.809" style="fill:rgb(200,38,36);fill-rule:nonzero;"/>
    </g>
    <g id="path34" transform="matrix(0.0845472,0,0,-0.0845472,9.43457,99.7885)">
        <path d="M891.91,518.344C861.199,508.887 732.355,479.211 732.355,479.211C724.633,476.832 726.934,471.039 726.934,471.039C735.824,401.039 733.891,347.617 733.891,329.16C733.891,320.977 739.848,322.18 739.848,322.18C773.301,322.18 927.883,322.18 927.883,322.18C936.055,322.18 934.262,329.543 934.262,329.543C932.727,352.859 926,419.211 900.078,514.336C900.078,514.336 898.789,520.465 891.91,518.344" style="fill:rgb(172,31,34);fill-rule:nonzero;"/>
    </g>
    <defs>
        <linearGradient id="_Linear1" x1="0" y1="0" x2="1" y2="0" gradientUnits="userSpaceOnUse" gradientTransform="matrix(5.8783e-15,-96,96,5.8783e-15,-220,731.291)"><stop offset="0%" style="stop-color:rgb(184,184,184);stop-opacity:1"/><stop offset="100%" style="stop-color:rgb(201,201,201);stop-opacity:1"/></linearGradient>
    </defs>
</svg>
